<svg width="246" height="117" viewBox="0 0 246 117" fill="none" xmlns="http://www.w3.org/2000/svg">
<path d="M95.9984 88.9115C98.4737 87.4825 99.9985 84.8414 99.9985 81.9833V33.4867C99.9985 30.6286 98.4738 27.9876 95.9986 26.5585L53.9993 2.30952C51.5241 0.880389 48.4744 0.880386 45.9992 2.30951L3.99992 26.5585C1.52476 27.9876 4.4928e-06 30.6286 4.26339e-06 33.4866L3.70729e-07 81.9834C1.41321e-07 84.8415 1.52475 87.4825 3.99991 88.9115L49.9978 115.469L49.9982 115.469C49.9986 115.47 49.9993 115.469 49.9993 115.469V115.469C49.9993 115.469 49.9994 115.468 49.9996 115.468L95.9984 88.9115Z" fill="black"/>
<path d="M111.9 38.1628C111.9 35.7059 112.779 33.8257 114.537 32.5221C116.295 31.2185 118.781 30.5667 121.995 30.5667V54.7087L147.231 30.5667C148.487 31.4692 149.491 32.497 150.245 33.6502C151.048 34.7533 151.45 35.731 151.45 36.5834C151.45 37.3355 151.174 38.0875 150.621 38.8396C150.119 39.5416 149.341 40.394 148.286 41.3967L133.219 55.6112L153.936 81.4079C152.379 83.5137 150.345 84.5667 147.834 84.5667C145.423 84.5667 143.49 83.6641 142.033 81.8591L126.289 61.9288L121.995 66.1405V77.4218C121.995 79.8786 121.191 81.6836 119.584 82.8368C117.977 83.99 115.416 84.5667 111.9 84.5667V38.1628Z" fill="black"/>
<path d="M175 84.5667C171.183 84.5667 167.743 83.8396 164.679 82.3856C161.615 80.9316 159.205 78.9511 157.447 76.4441C155.74 73.887 154.886 71.029 154.886 67.8703C154.886 65.7644 155.765 64.2853 157.522 63.4329C159.33 62.5806 161.841 62.1544 165.056 62.1544C164.905 63.0569 164.83 64.2101 164.83 65.614C164.83 68.8731 165.683 71.38 167.391 73.1349C169.149 74.8898 171.685 75.7672 175 75.7672C178.264 75.7672 180.775 74.8396 182.533 72.9845C184.291 71.0792 185.17 68.3717 185.17 64.8619V39.9678H177.561C175.201 39.9678 173.443 39.2658 172.288 37.8619C171.133 36.4079 170.555 34.2017 170.555 31.2435H190.368C191.723 31.2435 192.879 31.6948 193.833 32.5973C194.787 33.4497 195.264 34.5277 195.264 35.8313V64.8619C195.264 68.6224 194.385 72.0068 192.627 75.0151C190.92 77.9733 188.509 80.3048 185.396 82.0096C182.332 83.7143 178.867 84.5667 175 84.5667Z" fill="black"/>
<path d="M203.638 35.8313C203.638 34.5277 204.116 33.4497 205.07 32.5973C206.024 31.6948 207.229 31.2435 208.686 31.2435H228.8C234.224 31.2435 238.417 32.6725 241.38 35.5304C244.393 38.3884 245.9 42.3995 245.9 47.5639C245.9 50.5221 245.297 53.029 244.092 55.0848C242.887 57.0903 241.054 58.6948 238.593 59.8981V60.1238C243.012 62.0792 245.222 65.7895 245.222 71.2547V77.121C245.222 79.5277 244.368 81.3828 242.661 82.6864C240.953 83.9399 238.442 84.5667 235.128 84.5667V71.7059C235.128 69.0485 234.6 67.0931 233.546 65.8396C232.491 64.5862 230.884 63.9594 228.724 63.9594H213.582V77.121C213.582 79.5778 212.729 81.4329 211.021 82.6864C209.364 83.9399 206.903 84.5667 203.638 84.5667V35.8313ZM228.272 55.3856C230.683 55.3856 232.541 54.7087 233.847 53.355C235.153 51.9511 235.806 49.9956 235.806 47.4887C235.806 42.3745 233.294 39.8173 228.272 39.8173H213.582V55.3856H228.272Z" fill="black"/>
<path d="M57.297 31.5494C57.2964 31.55 57.2967 31.5511 57.2975 31.5513C57.8188 31.6974 58.3062 31.9447 58.732 32.2791C59.1582 32.6139 59.5144 33.0294 59.78 33.5018C60.0456 33.9743 60.2155 34.4945 60.2799 35.0327C60.3444 35.5709 60.3022 36.1165 60.1556 36.6383L47.9704 80.0525C47.675 81.1061 46.9732 81.9991 46.0194 82.5352C45.0655 83.0713 43.9378 83.2066 42.8843 82.9112C41.8307 82.6158 40.9377 81.914 40.4016 80.9602C39.8655 80.0063 39.7303 78.8786 40.0256 77.8251L52.2109 34.4053C52.3572 33.8836 52.6049 33.3958 52.9398 32.9698C53.2747 32.5438 53.6903 32.188 54.1627 31.9227C54.6352 31.6574 55.1552 31.4877 55.6933 31.4234C56.2307 31.3592 56.7754 31.4014 57.2965 31.5475C57.2974 31.5478 57.2976 31.5488 57.297 31.5494V31.5494ZM37.8806 42.6471C38.6531 43.4205 39.087 44.4689 39.087 45.5621C39.087 46.6552 38.6531 47.7036 37.8806 48.4771V48.4771C33.0502 53.312 33.0535 61.1481 37.8861 65.9808V65.9808C38.6596 66.7546 39.094 67.804 39.0937 68.8982C39.0935 69.9923 38.6586 71.0415 37.8848 71.8149C37.1109 72.5884 36.0615 73.0228 34.9674 73.0225C33.8733 73.0223 32.8241 72.5874 32.0506 71.8136L20.3824 60.1453C19.6099 59.3719 19.176 58.3234 19.176 57.2303C19.176 56.1372 19.6099 55.0887 20.3824 54.3153L32.0479 42.6471C32.431 42.2637 32.8858 41.9597 33.3865 41.7522C33.8871 41.5447 34.4237 41.4379 34.9656 41.4379C35.5076 41.4379 36.0442 41.5447 36.5448 41.7522C37.0455 41.9597 37.4976 42.2637 37.8806 42.6471ZM62.3006 48.4771C61.8954 48.0994 61.5703 47.644 61.3448 47.138C61.1194 46.632 60.9982 46.0858 60.9884 45.5319C60.9786 44.9781 61.0805 44.4279 61.288 43.9143C61.4954 43.4006 61.8042 42.934 62.1959 42.5423C62.5876 42.1506 63.0542 41.8418 63.5679 41.6344C64.0815 41.4269 64.6317 41.325 65.1855 41.3348C65.7394 41.3446 66.2856 41.4658 66.7916 41.6913C67.2976 41.9167 67.753 42.2418 68.1306 42.6471L79.7989 54.3126C80.5722 55.0861 81.0066 56.1351 81.0066 57.2289C81.0066 58.3227 80.5722 59.3718 79.7989 60.1453L68.1334 71.8136C67.7504 72.1967 67.2957 72.5007 66.7952 72.7081C66.2948 72.9156 65.7584 73.0224 65.2166 73.0225C64.6749 73.0227 64.1384 72.9161 63.6378 72.7089C63.1373 72.5017 62.6824 72.1979 62.2993 71.8149C61.9161 71.4319 61.6121 70.9772 61.4047 70.4768C61.1973 69.9763 61.0904 69.4399 61.0903 68.8982C61.0902 68.3564 61.1967 67.8199 61.4039 67.3194C61.6111 66.8188 61.9149 66.364 62.2979 65.9808V65.9808C67.1311 61.1476 67.1323 53.3118 62.3006 48.4771V48.4771Z" fill="white"/>
<path d="M117.488 108.41L122.516 93.9375H124.965L118.648 111H116.902L117.488 108.41ZM112.789 93.9375L117.77 108.41L118.391 111H116.645L110.34 93.9375H112.789ZM136.271 108.832V102.305C136.271 101.805 136.17 101.371 135.966 101.004C135.771 100.629 135.474 100.34 135.076 100.137C134.677 99.9336 134.185 99.832 133.599 99.832C133.052 99.832 132.572 99.9258 132.158 100.113C131.752 100.301 131.431 100.547 131.197 100.852C130.97 101.156 130.857 101.484 130.857 101.836H128.689C128.689 101.383 128.806 100.934 129.041 100.488C129.275 100.043 129.611 99.6406 130.048 99.2812C130.494 98.9141 131.025 98.625 131.642 98.4141C132.267 98.1953 132.962 98.0859 133.728 98.0859C134.65 98.0859 135.462 98.2422 136.166 98.5547C136.877 98.8672 137.431 99.3398 137.83 99.9727C138.236 100.598 138.439 101.383 138.439 102.328V108.234C138.439 108.656 138.474 109.105 138.545 109.582C138.623 110.059 138.736 110.469 138.884 110.812V111H136.623C136.513 110.75 136.427 110.418 136.365 110.004C136.302 109.582 136.271 109.191 136.271 108.832ZM136.646 103.312L136.67 104.836H134.478C133.861 104.836 133.31 104.887 132.826 104.988C132.341 105.082 131.935 105.227 131.607 105.422C131.279 105.617 131.029 105.863 130.857 106.16C130.685 106.449 130.599 106.789 130.599 107.18C130.599 107.578 130.689 107.941 130.869 108.27C131.048 108.598 131.318 108.859 131.677 109.055C132.045 109.242 132.494 109.336 133.025 109.336C133.689 109.336 134.275 109.195 134.783 108.914C135.291 108.633 135.693 108.289 135.99 107.883C136.295 107.477 136.459 107.082 136.482 106.699L137.408 107.742C137.353 108.07 137.205 108.434 136.962 108.832C136.72 109.23 136.396 109.613 135.99 109.98C135.591 110.34 135.115 110.641 134.56 110.883C134.013 111.117 133.396 111.234 132.709 111.234C131.849 111.234 131.095 111.066 130.447 110.73C129.806 110.395 129.306 109.945 128.947 109.383C128.595 108.812 128.42 108.176 128.42 107.473C128.42 106.793 128.552 106.195 128.818 105.68C129.084 105.156 129.466 104.723 129.966 104.379C130.466 104.027 131.068 103.762 131.771 103.582C132.474 103.402 133.259 103.312 134.127 103.312H136.646ZM152.464 98.3203H154.433V110.73C154.433 111.848 154.206 112.801 153.753 113.59C153.3 114.379 152.667 114.977 151.855 115.383C151.05 115.797 150.12 116.004 149.066 116.004C148.628 116.004 148.112 115.934 147.519 115.793C146.933 115.66 146.355 115.43 145.784 115.102C145.222 114.781 144.749 114.348 144.366 113.801L145.503 112.512C146.034 113.152 146.589 113.598 147.167 113.848C147.753 114.098 148.331 114.223 148.902 114.223C149.589 114.223 150.183 114.094 150.683 113.836C151.183 113.578 151.57 113.195 151.843 112.688C152.124 112.188 152.265 111.57 152.265 110.836V101.109L152.464 98.3203ZM143.734 104.801V104.555C143.734 103.586 143.847 102.707 144.073 101.918C144.308 101.121 144.64 100.438 145.07 99.8672C145.507 99.2969 146.034 98.8594 146.652 98.5547C147.269 98.2422 147.964 98.0859 148.737 98.0859C149.534 98.0859 150.23 98.2266 150.823 98.5078C151.425 98.7812 151.933 99.1836 152.347 99.7148C152.769 100.238 153.101 100.871 153.343 101.613C153.585 102.355 153.753 103.195 153.847 104.133V105.211C153.761 106.141 153.593 106.977 153.343 107.719C153.101 108.461 152.769 109.094 152.347 109.617C151.933 110.141 151.425 110.543 150.823 110.824C150.222 111.098 149.519 111.234 148.714 111.234C147.956 111.234 147.269 111.074 146.652 110.754C146.042 110.434 145.519 109.984 145.081 109.406C144.644 108.828 144.308 108.148 144.073 107.367C143.847 106.578 143.734 105.723 143.734 104.801ZM145.902 104.555V104.801C145.902 105.434 145.964 106.027 146.089 106.582C146.222 107.137 146.421 107.625 146.687 108.047C146.96 108.469 147.308 108.801 147.73 109.043C148.152 109.277 148.655 109.395 149.241 109.395C149.96 109.395 150.554 109.242 151.023 108.938C151.491 108.633 151.862 108.23 152.136 107.73C152.417 107.23 152.636 106.688 152.792 106.102V103.277C152.706 102.848 152.573 102.434 152.394 102.035C152.222 101.629 151.995 101.27 151.714 100.957C151.441 100.637 151.101 100.383 150.695 100.195C150.288 100.008 149.812 99.9141 149.265 99.9141C148.671 99.9141 148.159 100.039 147.73 100.289C147.308 100.531 146.96 100.867 146.687 101.297C146.421 101.719 146.222 102.211 146.089 102.773C145.964 103.328 145.902 103.922 145.902 104.555ZM167.602 108.832V102.305C167.602 101.805 167.501 101.371 167.298 101.004C167.102 100.629 166.805 100.34 166.407 100.137C166.009 99.9336 165.516 99.832 164.93 99.832C164.384 99.832 163.903 99.9258 163.489 100.113C163.083 100.301 162.763 100.547 162.528 100.852C162.302 101.156 162.188 101.484 162.188 101.836H160.02C160.02 101.383 160.138 100.934 160.372 100.488C160.606 100.043 160.942 99.6406 161.38 99.2812C161.825 98.9141 162.356 98.625 162.973 98.4141C163.598 98.1953 164.294 98.0859 165.059 98.0859C165.981 98.0859 166.794 98.2422 167.497 98.5547C168.208 98.8672 168.763 99.3398 169.161 99.9727C169.567 100.598 169.77 101.383 169.77 102.328V108.234C169.77 108.656 169.805 109.105 169.876 109.582C169.954 110.059 170.067 110.469 170.216 110.812V111H167.954C167.845 110.75 167.759 110.418 167.696 110.004C167.634 109.582 167.602 109.191 167.602 108.832ZM167.977 103.312L168.001 104.836H165.809C165.192 104.836 164.641 104.887 164.157 104.988C163.673 105.082 163.266 105.227 162.938 105.422C162.61 105.617 162.36 105.863 162.188 106.16C162.016 106.449 161.93 106.789 161.93 107.18C161.93 107.578 162.02 107.941 162.2 108.27C162.38 108.598 162.649 108.859 163.009 109.055C163.376 109.242 163.825 109.336 164.356 109.336C165.02 109.336 165.606 109.195 166.114 108.914C166.622 108.633 167.024 108.289 167.321 107.883C167.626 107.477 167.79 107.082 167.813 106.699L168.739 107.742C168.684 108.07 168.536 108.434 168.294 108.832C168.052 109.23 167.727 109.613 167.321 109.98C166.923 110.34 166.446 110.641 165.891 110.883C165.345 111.117 164.727 111.234 164.04 111.234C163.18 111.234 162.427 111.066 161.778 110.73C161.138 110.395 160.638 109.945 160.278 109.383C159.927 108.812 159.751 108.176 159.751 107.473C159.751 106.793 159.884 106.195 160.149 105.68C160.415 105.156 160.798 104.723 161.298 104.379C161.798 104.027 162.399 103.762 163.102 103.582C163.805 103.402 164.591 103.312 165.458 103.312H167.977ZM182.963 107.637C182.963 107.324 182.893 107.035 182.752 106.77C182.62 106.496 182.342 106.25 181.92 106.031C181.506 105.805 180.881 105.609 180.045 105.445C179.342 105.297 178.705 105.121 178.135 104.918C177.573 104.715 177.092 104.469 176.694 104.18C176.303 103.891 176.002 103.551 175.791 103.16C175.58 102.77 175.475 102.312 175.475 101.789C175.475 101.289 175.584 100.816 175.803 100.371C176.03 99.9258 176.346 99.5312 176.752 99.1875C177.166 98.8438 177.662 98.5742 178.241 98.3789C178.819 98.1836 179.463 98.0859 180.174 98.0859C181.19 98.0859 182.057 98.2656 182.776 98.625C183.495 98.9844 184.045 99.4648 184.428 100.066C184.811 100.66 185.002 101.32 185.002 102.047H182.834C182.834 101.695 182.729 101.355 182.518 101.027C182.315 100.691 182.014 100.414 181.616 100.195C181.225 99.9766 180.745 99.8672 180.174 99.8672C179.573 99.8672 179.084 99.9609 178.709 100.148C178.342 100.328 178.073 100.559 177.901 100.84C177.737 101.121 177.655 101.418 177.655 101.73C177.655 101.965 177.694 102.176 177.772 102.363C177.858 102.543 178.006 102.711 178.217 102.867C178.428 103.016 178.725 103.156 179.108 103.289C179.491 103.422 179.979 103.555 180.573 103.688C181.612 103.922 182.467 104.203 183.139 104.531C183.811 104.859 184.311 105.262 184.639 105.738C184.967 106.215 185.131 106.793 185.131 107.473C185.131 108.027 185.014 108.535 184.78 108.996C184.553 109.457 184.221 109.855 183.784 110.191C183.354 110.52 182.838 110.777 182.237 110.965C181.643 111.145 180.975 111.234 180.233 111.234C179.116 111.234 178.17 111.035 177.397 110.637C176.623 110.238 176.037 109.723 175.639 109.09C175.241 108.457 175.041 107.789 175.041 107.086H177.221C177.252 107.68 177.424 108.152 177.737 108.504C178.049 108.848 178.432 109.094 178.885 109.242C179.338 109.383 179.787 109.453 180.233 109.453C180.827 109.453 181.323 109.375 181.721 109.219C182.127 109.062 182.436 108.848 182.647 108.574C182.858 108.301 182.963 107.988 182.963 107.637Z" fill="black"/>
</svg>
