<svg width="328" height="117" viewBox="0 0 328 117" fill="none" xmlns="http://www.w3.org/2000/svg">
<path d="M95.9985 88.9115C98.4737 87.4825 99.9985 84.8414 99.9985 81.9833V33.4867C99.9985 30.6286 98.4738 27.9876 95.9986 26.5585L53.9994 2.30952C51.5241 0.880389 48.4744 0.880386 45.9992 2.30951L3.99992 26.5585C1.52476 27.9876 4.4928e-06 30.6286 4.26339e-06 33.4866L3.70729e-07 81.9834C1.41321e-07 84.8415 1.52475 87.4825 3.99991 88.9115L49.9978 115.469L49.9982 115.469C49.9986 115.47 49.9992 115.469 49.9993 115.469C49.9993 115.469 49.9994 115.468 49.9996 115.468L95.9985 88.9115Z" fill="black"/>
<path d="M111.9 38.1628C111.9 35.7059 112.779 33.8257 114.537 32.5221C116.295 31.2185 118.781 30.5667 121.995 30.5667V54.7087L147.231 30.5667C148.487 31.4692 149.491 32.497 150.245 33.6502C151.048 34.7533 151.45 35.731 151.45 36.5834C151.45 37.3355 151.174 38.0875 150.621 38.8396C150.119 39.5416 149.341 40.394 148.286 41.3967L133.22 55.6112L153.936 81.4079C152.379 83.5137 150.345 84.5667 147.834 84.5667C145.423 84.5667 143.49 83.6641 142.034 81.8591L126.289 61.9288L121.995 66.1405V77.4218C121.995 79.8786 121.191 81.6836 119.584 82.8368C117.977 83.9901 115.416 84.5667 111.9 84.5667V38.1628Z" fill="black"/>
<path d="M175 84.5667C171.183 84.5667 167.743 83.8396 164.679 82.3856C161.616 80.9316 159.205 78.9511 157.447 76.4441C155.74 73.887 154.886 71.029 154.886 67.8703C154.886 65.7644 155.765 64.2853 157.523 63.4329C159.331 62.5806 161.842 62.1544 165.056 62.1544C164.905 63.0569 164.83 64.2101 164.83 65.614C164.83 68.8731 165.684 71.38 167.391 73.1349C169.149 74.8898 171.685 75.7672 175 75.7672C178.264 75.7672 180.775 74.8396 182.533 72.9845C184.291 71.0792 185.17 68.3717 185.17 64.8619V39.9678H177.561C175.201 39.9678 173.443 39.2658 172.288 37.8619C171.133 36.4079 170.555 34.2017 170.555 31.2435H190.368C191.724 31.2435 192.879 31.6948 193.833 32.5973C194.787 33.4497 195.264 34.5277 195.264 35.8313V64.8619C195.264 68.6224 194.386 72.0068 192.628 75.0151C190.92 77.9733 188.51 80.3048 185.396 82.0096C182.332 83.7143 178.867 84.5667 175 84.5667Z" fill="black"/>
<path d="M203.639 35.8313C203.639 34.5277 204.116 33.4497 205.07 32.5973C206.024 31.6948 207.23 31.2435 208.686 31.2435H228.8C234.224 31.2435 238.417 32.6725 241.38 35.5304C244.394 38.3884 245.9 42.3995 245.9 47.5639C245.9 50.5221 245.298 53.029 244.092 55.0848C242.887 57.0903 241.054 58.6948 238.593 59.8981V60.1238C243.013 62.0792 245.222 65.7895 245.222 71.2547V77.121C245.222 79.5277 244.369 81.3828 242.661 82.6864C240.954 83.9399 238.442 84.5667 235.128 84.5667V71.7059C235.128 69.0485 234.6 67.0931 233.546 65.8396C232.491 64.5862 230.884 63.9594 228.725 63.9594H213.583V77.121C213.583 79.5778 212.729 81.4329 211.021 82.6864C209.364 83.9399 206.903 84.5667 203.639 84.5667V35.8313ZM228.273 55.3856C230.683 55.3856 232.541 54.7087 233.847 53.355C235.153 51.9511 235.806 49.9956 235.806 47.4887C235.806 42.3745 233.295 39.8173 228.273 39.8173H213.583V55.3856H228.273Z" fill="black"/>
<path d="M57.2973 31.5494C57.2966 31.55 57.2969 31.5511 57.2978 31.5513C57.819 31.6974 58.3064 31.9447 58.7322 32.2791C59.1585 32.6139 59.5146 33.0294 59.7802 33.5018C60.0458 33.9743 60.2157 34.4945 60.2802 35.0327C60.3446 35.5709 60.3024 36.1165 60.1559 36.6383L47.9706 80.0525C47.6753 81.1061 46.9735 81.9991 46.0196 82.5352C45.0658 83.0713 43.9381 83.2066 42.8845 82.9112C41.831 82.6158 40.9379 81.914 40.4018 80.9602C39.8657 80.0063 39.7305 78.8786 40.0259 77.8251L52.2111 34.4053C52.3575 33.8836 52.6052 33.3958 52.9401 32.9698C53.275 32.5438 53.6905 32.188 54.1629 31.9227C54.6354 31.6574 55.1555 31.4877 55.6935 31.4234C56.2309 31.3592 56.7757 31.4014 57.2968 31.5475C57.2976 31.5478 57.2979 31.5488 57.2973 31.5494ZM37.8809 42.6471C38.6534 43.4205 39.0873 44.4689 39.0873 45.5621C39.0873 46.6552 38.6534 47.7036 37.8809 48.4771C33.0505 53.312 33.0537 61.1481 37.8864 65.9808C38.6599 66.7546 39.0942 67.804 39.094 68.8982C39.0937 69.9923 38.6588 71.0415 37.885 71.8149C37.1112 72.5884 36.0618 73.0228 34.9677 73.0225C33.8736 73.0223 32.8244 72.5874 32.0509 71.8136L20.3826 60.1453C19.6102 59.3719 19.1763 58.3234 19.1763 57.2303C19.1763 56.1372 19.6102 55.0887 20.3826 54.3153L32.0481 42.6471C32.4312 42.2637 32.8861 41.9597 33.3867 41.7522C33.8873 41.5447 34.424 41.4379 34.9659 41.4379C35.5078 41.4379 36.0444 41.5447 36.5451 41.7522C37.0457 41.9597 37.4978 42.2637 37.8809 42.6471ZM62.3009 48.4771C61.8956 48.0994 61.5705 47.644 61.3451 47.138C61.1196 46.632 60.9984 46.0858 60.9886 45.5319C60.9789 44.9781 61.0807 44.4279 61.2882 43.9143C61.4957 43.4006 61.8045 42.934 62.1962 42.5423C62.5879 42.1506 63.0545 41.8418 63.5681 41.6344C64.0817 41.4269 64.6319 41.325 65.1858 41.3348C65.7396 41.3446 66.2859 41.4658 66.7918 41.6913C67.2978 41.9167 67.7532 42.2418 68.1309 42.6471L79.7991 54.3126C80.5725 55.0861 81.0069 56.1351 81.0069 57.2289C81.0069 58.3227 80.5725 59.3718 79.7991 60.1453L68.1336 71.8136C67.7507 72.1967 67.2959 72.5007 66.7955 72.7081C66.295 72.9156 65.7586 73.0224 65.2169 73.0225C64.6751 73.0227 64.1386 72.9161 63.6381 72.7089C63.1375 72.5017 62.6827 72.1979 62.2995 71.8149C61.9164 71.4319 61.6124 70.9772 61.4049 70.4768C61.1975 69.9763 61.0907 69.4399 61.0905 68.8982C61.0904 68.3564 61.197 67.8199 61.4042 67.3194C61.6114 66.8188 61.9152 66.364 62.2981 65.9808C67.1313 61.1476 67.1326 53.3118 62.3009 48.4771Z" fill="white"/>
<path d="M116.598 111H113.035L113.059 109.16H116.598C117.816 109.16 118.832 108.906 119.645 108.398C120.457 107.883 121.066 107.164 121.473 106.242C121.887 105.312 122.094 104.227 122.094 102.984V101.941C122.094 100.965 121.977 100.098 121.742 99.3398C121.508 98.5742 121.164 97.9297 120.711 97.4062C120.258 96.875 119.703 96.4727 119.047 96.1992C118.398 95.9258 117.652 95.7891 116.809 95.7891H112.965V93.9375H116.809C117.926 93.9375 118.945 94.125 119.867 94.5C120.789 94.8672 121.582 95.4023 122.246 96.1055C122.918 96.8008 123.434 97.6445 123.793 98.6367C124.152 99.6211 124.332 100.73 124.332 101.965V102.984C124.332 104.219 124.152 105.332 123.793 106.324C123.434 107.309 122.914 108.148 122.234 108.844C121.562 109.539 120.75 110.074 119.797 110.449C118.852 110.816 117.785 111 116.598 111ZM114.242 93.9375V111H111.98V93.9375H114.242ZM135.064 111.234C134.181 111.234 133.38 111.086 132.662 110.789C131.951 110.484 131.337 110.059 130.822 109.512C130.314 108.965 129.923 108.316 129.65 107.566C129.377 106.816 129.24 105.996 129.24 105.105V104.613C129.24 103.582 129.392 102.664 129.697 101.859C130.002 101.047 130.416 100.359 130.939 99.7969C131.462 99.2344 132.056 98.8086 132.72 98.5195C133.384 98.2305 134.072 98.0859 134.783 98.0859C135.689 98.0859 136.47 98.2422 137.127 98.5547C137.791 98.8672 138.334 99.3047 138.755 99.8672C139.177 100.422 139.49 101.078 139.693 101.836C139.896 102.586 139.998 103.406 139.998 104.297V105.27H130.529V103.5H137.83V103.336C137.798 102.773 137.681 102.227 137.478 101.695C137.283 101.164 136.97 100.727 136.541 100.383C136.111 100.039 135.525 99.8672 134.783 99.8672C134.291 99.8672 133.837 99.9727 133.423 100.184C133.009 100.387 132.654 100.691 132.357 101.098C132.06 101.504 131.83 102 131.666 102.586C131.502 103.172 131.42 103.848 131.42 104.613V105.105C131.42 105.707 131.502 106.273 131.666 106.805C131.837 107.328 132.084 107.789 132.404 108.188C132.732 108.586 133.127 108.898 133.587 109.125C134.056 109.352 134.587 109.465 135.181 109.465C135.947 109.465 136.595 109.309 137.127 108.996C137.658 108.684 138.123 108.266 138.521 107.742L139.834 108.785C139.56 109.199 139.212 109.594 138.791 109.969C138.369 110.344 137.849 110.648 137.232 110.883C136.623 111.117 135.9 111.234 135.064 111.234ZM152.312 107.637C152.312 107.324 152.241 107.035 152.101 106.77C151.968 106.496 151.691 106.25 151.269 106.031C150.855 105.805 150.23 105.609 149.394 105.445C148.691 105.297 148.054 105.121 147.484 104.918C146.921 104.715 146.441 104.469 146.042 104.18C145.652 103.891 145.351 103.551 145.14 103.16C144.929 102.77 144.823 102.312 144.823 101.789C144.823 101.289 144.933 100.816 145.152 100.371C145.378 99.9258 145.695 99.5312 146.101 99.1875C146.515 98.8438 147.011 98.5742 147.589 98.3789C148.167 98.1836 148.812 98.0859 149.523 98.0859C150.538 98.0859 151.405 98.2656 152.124 98.625C152.843 98.9844 153.394 99.4648 153.777 100.066C154.159 100.66 154.351 101.32 154.351 102.047H152.183C152.183 101.695 152.077 101.355 151.866 101.027C151.663 100.691 151.362 100.414 150.964 100.195C150.573 99.9766 150.093 99.8672 149.523 99.8672C148.921 99.8672 148.433 99.9609 148.058 100.148C147.691 100.328 147.421 100.559 147.249 100.84C147.085 101.121 147.003 101.418 147.003 101.73C147.003 101.965 147.042 102.176 147.12 102.363C147.206 102.543 147.355 102.711 147.566 102.867C147.777 103.016 148.073 103.156 148.456 103.289C148.839 103.422 149.327 103.555 149.921 103.688C150.96 103.922 151.816 104.203 152.487 104.531C153.159 104.859 153.659 105.262 153.987 105.738C154.316 106.215 154.48 106.793 154.48 107.473C154.48 108.027 154.362 108.535 154.128 108.996C153.902 109.457 153.57 109.855 153.132 110.191C152.702 110.52 152.187 110.777 151.585 110.965C150.991 111.145 150.323 111.234 149.581 111.234C148.464 111.234 147.519 111.035 146.745 110.637C145.972 110.238 145.386 109.723 144.987 109.09C144.589 108.457 144.39 107.789 144.39 107.086H146.57C146.601 107.68 146.773 108.152 147.085 108.504C147.398 108.848 147.78 109.094 148.234 109.242C148.687 109.383 149.136 109.453 149.581 109.453C150.175 109.453 150.671 109.375 151.07 109.219C151.476 109.062 151.784 108.848 151.995 108.574C152.206 108.301 152.312 107.988 152.312 107.637ZM164.989 111.234C164.106 111.234 163.305 111.086 162.587 110.789C161.876 110.484 161.263 110.059 160.747 109.512C160.239 108.965 159.848 108.316 159.575 107.566C159.302 106.816 159.165 105.996 159.165 105.105V104.613C159.165 103.582 159.317 102.664 159.622 101.859C159.927 101.047 160.341 100.359 160.864 99.7969C161.388 99.2344 161.981 98.8086 162.645 98.5195C163.309 98.2305 163.997 98.0859 164.708 98.0859C165.614 98.0859 166.395 98.2422 167.052 98.5547C167.716 98.8672 168.259 99.3047 168.68 99.8672C169.102 100.422 169.415 101.078 169.618 101.836C169.821 102.586 169.923 103.406 169.923 104.297V105.27H160.454V103.5H167.755V103.336C167.723 102.773 167.606 102.227 167.403 101.695C167.208 101.164 166.895 100.727 166.466 100.383C166.036 100.039 165.45 99.8672 164.708 99.8672C164.216 99.8672 163.763 99.9727 163.348 100.184C162.934 100.387 162.579 100.691 162.282 101.098C161.985 101.504 161.755 102 161.591 102.586C161.427 103.172 161.345 103.848 161.345 104.613V105.105C161.345 105.707 161.427 106.273 161.591 106.805C161.763 107.328 162.009 107.789 162.329 108.188C162.657 108.586 163.052 108.898 163.513 109.125C163.981 109.352 164.513 109.465 165.106 109.465C165.872 109.465 166.52 109.309 167.052 108.996C167.583 108.684 168.048 108.266 168.446 107.742L169.759 108.785C169.485 109.199 169.138 109.594 168.716 109.969C168.294 110.344 167.774 110.648 167.157 110.883C166.548 111.117 165.825 111.234 164.989 111.234ZM177.022 101.027V111H174.854V98.3203H176.905L177.022 101.027ZM176.506 104.18L175.604 104.145C175.612 103.277 175.741 102.477 175.991 101.742C176.241 101 176.592 100.355 177.045 99.8086C177.498 99.2617 178.037 98.8398 178.662 98.543C179.295 98.2383 179.995 98.0859 180.76 98.0859C181.385 98.0859 181.948 98.1719 182.448 98.3438C182.948 98.5078 183.373 98.7734 183.725 99.1406C184.084 99.5078 184.358 99.9844 184.545 100.57C184.733 101.148 184.827 101.855 184.827 102.691V111H182.647V102.668C182.647 102.004 182.549 101.473 182.354 101.074C182.159 100.668 181.873 100.375 181.498 100.195C181.123 100.008 180.662 99.9141 180.116 99.9141C179.577 99.9141 179.084 100.027 178.639 100.254C178.202 100.48 177.823 100.793 177.502 101.191C177.19 101.59 176.944 102.047 176.764 102.562C176.592 103.07 176.506 103.609 176.506 104.18ZM194.375 109.043L197.844 98.3203H200.059L195.5 111H194.047L194.375 109.043ZM191.48 98.3203L195.055 109.102L195.301 111H193.848L189.254 98.3203H191.48ZM203.783 104.801V104.531C203.783 103.617 203.916 102.77 204.181 101.988C204.447 101.199 204.83 100.516 205.33 99.9375C205.83 99.3516 206.435 98.8984 207.146 98.5781C207.857 98.25 208.654 98.0859 209.537 98.0859C210.427 98.0859 211.228 98.25 211.939 98.5781C212.658 98.8984 213.267 99.3516 213.767 99.9375C214.275 100.516 214.662 101.199 214.927 101.988C215.193 102.77 215.326 103.617 215.326 104.531V104.801C215.326 105.715 215.193 106.562 214.927 107.344C214.662 108.125 214.275 108.809 213.767 109.395C213.267 109.973 212.662 110.426 211.951 110.754C211.248 111.074 210.451 111.234 209.56 111.234C208.67 111.234 207.869 111.074 207.158 110.754C206.447 110.426 205.838 109.973 205.33 109.395C204.83 108.809 204.447 108.125 204.181 107.344C203.916 106.562 203.783 105.715 203.783 104.801ZM205.951 104.531V104.801C205.951 105.434 206.025 106.031 206.173 106.594C206.322 107.148 206.545 107.641 206.841 108.07C207.146 108.5 207.525 108.84 207.978 109.09C208.431 109.332 208.959 109.453 209.56 109.453C210.154 109.453 210.673 109.332 211.119 109.09C211.572 108.84 211.947 108.5 212.244 108.07C212.541 107.641 212.763 107.148 212.912 106.594C213.068 106.031 213.146 105.434 213.146 104.801V104.531C213.146 103.906 213.068 103.316 212.912 102.762C212.763 102.199 212.537 101.703 212.232 101.273C211.935 100.836 211.56 100.492 211.107 100.242C210.662 99.9922 210.138 99.8672 209.537 99.8672C208.943 99.8672 208.42 99.9922 207.966 100.242C207.521 100.492 207.146 100.836 206.841 101.273C206.545 101.703 206.322 102.199 206.173 102.762C206.025 103.316 205.951 103.906 205.951 104.531ZM222.8 93V111H220.62V93H222.8ZM232.536 109.043L236.005 98.3203H238.22L233.661 111H232.208L232.536 109.043ZM229.641 98.3203L233.216 109.102L233.462 111H232.009L227.415 98.3203H229.641ZM245.061 98.3203V111H242.881V98.3203H245.061ZM242.717 94.957C242.717 94.6055 242.823 94.3086 243.034 94.0664C243.252 93.8242 243.573 93.7031 243.995 93.7031C244.409 93.7031 244.725 93.8242 244.944 94.0664C245.17 94.3086 245.284 94.6055 245.284 94.957C245.284 95.293 245.17 95.582 244.944 95.8242C244.725 96.0586 244.409 96.1758 243.995 96.1758C243.573 96.1758 243.252 96.0586 243.034 95.8242C242.823 95.582 242.717 95.293 242.717 94.957ZM253.098 100.84V111H250.918V98.3203H252.98L253.098 100.84ZM252.652 104.18L251.645 104.145C251.652 103.277 251.766 102.477 251.984 101.742C252.203 101 252.527 100.355 252.957 99.8086C253.387 99.2617 253.922 98.8398 254.562 98.543C255.203 98.2383 255.945 98.0859 256.789 98.0859C257.383 98.0859 257.93 98.1719 258.43 98.3438C258.93 98.5078 259.363 98.7695 259.73 99.1289C260.098 99.4883 260.383 99.9492 260.586 100.512C260.789 101.074 260.891 101.754 260.891 102.551V111H258.723V102.656C258.723 101.992 258.609 101.461 258.383 101.062C258.164 100.664 257.852 100.375 257.445 100.195C257.039 100.008 256.562 99.9141 256.016 99.9141C255.375 99.9141 254.84 100.027 254.41 100.254C253.98 100.48 253.637 100.793 253.379 101.191C253.121 101.59 252.934 102.047 252.816 102.562C252.707 103.07 252.652 103.609 252.652 104.18ZM260.867 102.984L259.414 103.43C259.422 102.734 259.535 102.066 259.754 101.426C259.98 100.785 260.305 100.215 260.727 99.7148C261.156 99.2148 261.684 98.8203 262.309 98.5312C262.934 98.2344 263.648 98.0859 264.453 98.0859C265.133 98.0859 265.734 98.1758 266.258 98.3555C266.789 98.5352 267.234 98.8125 267.594 99.1875C267.961 99.5547 268.238 100.027 268.426 100.605C268.613 101.184 268.707 101.871 268.707 102.668V111H266.527V102.645C266.527 101.934 266.414 101.383 266.188 100.992C265.969 100.594 265.656 100.316 265.25 100.16C264.852 99.9961 264.375 99.9141 263.82 99.9141C263.344 99.9141 262.922 99.9961 262.555 100.16C262.188 100.324 261.879 100.551 261.629 100.84C261.379 101.121 261.188 101.445 261.055 101.812C260.93 102.18 260.867 102.57 260.867 102.984ZM279.65 111.234C278.767 111.234 277.966 111.086 277.248 110.789C276.537 110.484 275.923 110.059 275.408 109.512C274.9 108.965 274.509 108.316 274.236 107.566C273.962 106.816 273.826 105.996 273.826 105.105V104.613C273.826 103.582 273.978 102.664 274.283 101.859C274.587 101.047 275.002 100.359 275.525 99.7969C276.048 99.2344 276.642 98.8086 277.306 98.5195C277.97 98.2305 278.658 98.0859 279.369 98.0859C280.275 98.0859 281.056 98.2422 281.712 98.5547C282.377 98.8672 282.92 99.3047 283.341 99.8672C283.763 100.422 284.076 101.078 284.279 101.836C284.482 102.586 284.584 103.406 284.584 104.297V105.27H275.115V103.5H282.416V103.336C282.384 102.773 282.267 102.227 282.064 101.695C281.869 101.164 281.556 100.727 281.127 100.383C280.697 100.039 280.111 99.8672 279.369 99.8672C278.877 99.8672 278.423 99.9727 278.009 100.184C277.595 100.387 277.24 100.691 276.943 101.098C276.646 101.504 276.416 102 276.252 102.586C276.087 103.172 276.005 103.848 276.005 104.613V105.105C276.005 105.707 276.087 106.273 276.252 106.805C276.423 107.328 276.67 107.789 276.99 108.188C277.318 108.586 277.712 108.898 278.173 109.125C278.642 109.352 279.173 109.465 279.767 109.465C280.533 109.465 281.181 109.309 281.712 108.996C282.244 108.684 282.709 108.266 283.107 107.742L284.42 108.785C284.146 109.199 283.798 109.594 283.377 109.969C282.955 110.344 282.435 110.648 281.818 110.883C281.209 111.117 280.486 111.234 279.65 111.234ZM291.683 101.027V111H289.515V98.3203H291.566L291.683 101.027ZM291.167 104.18L290.265 104.145C290.273 103.277 290.402 102.477 290.652 101.742C290.902 101 291.253 100.355 291.706 99.8086C292.159 99.2617 292.698 98.8398 293.323 98.543C293.956 98.2383 294.655 98.0859 295.421 98.0859C296.046 98.0859 296.609 98.1719 297.109 98.3438C297.609 98.5078 298.034 98.7734 298.386 99.1406C298.745 99.5078 299.019 99.9844 299.206 100.57C299.394 101.148 299.488 101.855 299.488 102.691V111H297.308V102.668C297.308 102.004 297.21 101.473 297.015 101.074C296.82 100.668 296.534 100.375 296.159 100.195C295.784 100.008 295.323 99.9141 294.777 99.9141C294.238 99.9141 293.745 100.027 293.3 100.254C292.863 100.48 292.484 100.793 292.163 101.191C291.851 101.59 291.605 102.047 291.425 102.562C291.253 103.07 291.167 103.609 291.167 104.18ZM310.489 98.3203V99.9844H303.634V98.3203H310.489ZM305.954 95.2383H308.122V107.859C308.122 108.289 308.188 108.613 308.321 108.832C308.454 109.051 308.626 109.195 308.837 109.266C309.048 109.336 309.274 109.371 309.516 109.371C309.696 109.371 309.884 109.355 310.079 109.324C310.282 109.285 310.434 109.254 310.536 109.23L310.548 111C310.376 111.055 310.149 111.105 309.868 111.152C309.595 111.207 309.262 111.234 308.872 111.234C308.341 111.234 307.852 111.129 307.407 110.918C306.962 110.707 306.606 110.355 306.341 109.863C306.083 109.363 305.954 108.691 305.954 107.848V95.2383ZM314.623 104.801V104.531C314.623 103.617 314.756 102.77 315.022 101.988C315.288 101.199 315.67 100.516 316.17 99.9375C316.67 99.3516 317.276 98.8984 317.987 98.5781C318.698 98.25 319.495 98.0859 320.377 98.0859C321.268 98.0859 322.069 98.25 322.78 98.5781C323.498 98.8984 324.108 99.3516 324.608 99.9375C325.116 100.516 325.502 101.199 325.768 101.988C326.034 102.77 326.166 103.617 326.166 104.531V104.801C326.166 105.715 326.034 106.562 325.768 107.344C325.502 108.125 325.116 108.809 324.608 109.395C324.108 109.973 323.502 110.426 322.791 110.754C322.088 111.074 321.291 111.234 320.401 111.234C319.51 111.234 318.709 111.074 317.998 110.754C317.288 110.426 316.678 109.973 316.17 109.395C315.67 108.809 315.288 108.125 315.022 107.344C314.756 106.562 314.623 105.715 314.623 104.801ZM316.791 104.531V104.801C316.791 105.434 316.866 106.031 317.014 106.594C317.163 107.148 317.385 107.641 317.682 108.07C317.987 108.5 318.366 108.84 318.819 109.09C319.272 109.332 319.799 109.453 320.401 109.453C320.995 109.453 321.514 109.332 321.959 109.09C322.413 108.84 322.788 108.5 323.084 108.07C323.381 107.641 323.604 107.148 323.752 106.594C323.909 106.031 323.987 105.434 323.987 104.801V104.531C323.987 103.906 323.909 103.316 323.752 102.762C323.604 102.199 323.377 101.703 323.073 101.273C322.776 100.836 322.401 100.492 321.948 100.242C321.502 99.9922 320.979 99.8672 320.377 99.8672C319.784 99.8672 319.26 99.9922 318.807 100.242C318.362 100.492 317.987 100.836 317.682 101.273C317.385 101.703 317.163 102.199 317.014 102.762C316.866 103.316 316.791 103.906 316.791 104.531Z" fill="black"/>
</svg>
